<?xml version="1.0" encoding="UTF-8"?>
<svg id="Ebene_2" xmlns="http://www.w3.org/2000/svg" version="1.1" viewBox="0 0 235.28 42.52">
  <!-- Generator: Adobe Illustrator 29.7.1, SVG Export Plug-In . SVG Version: 2.1.1 Build 8)  -->
  <defs>
    <style>
      .st0 {
        fill: #fff;
      }
    </style>
  </defs>
  <g>
    <path class="st0" d="M3.04,2.45h2.42v2.71h.02l2.16-2.71h2.98l-2.85,3.07,3.31,4.79h-3.01l-1.94-3.06-.67.74v2.32h-2.42V2.45Z"/>
    <path class="st0" d="M17.16,9.03c0,.43.02.91.26,1.28h-2.22c-.06-.15-.09-.38-.08-.54h-.02c-.46.53-1.13.68-1.84.68-1.1,0-2.01-.53-2.01-1.73,0-1.8,2.11-1.74,3.22-1.95.3-.06.59-.14.59-.51,0-.39-.36-.53-.72-.53-.67,0-.8.34-.81.58h-2.02c.03-.8.43-1.28.99-1.54.55-.26,1.28-.33,1.95-.33,2.73,0,2.71,1.13,2.71,2.23v2.34ZM15.07,7.75c-.26.13-.56.21-.86.28-.48.11-.74.23-.74.62,0,.26.29.53.68.53.5,0,.88-.3.91-.89v-.53Z"/>
    <path class="st0" d="M18.4,4.6h2.1v.73h.02c.41-.57.99-.87,1.86-.87,1.02,0,1.96.63,1.96,1.94v3.92h-2.18v-2.99c0-.66-.08-1.12-.71-1.12-.37,0-.87.19-.87,1.1v3.01h-2.18v-5.71Z"/>
    <path class="st0" d="M28.21,4.6h1.17v1.34h-1.17v1.99c0,.53.12.76.67.76.16,0,.33-.01.49-.03v1.65c-.44,0-.94.07-1.4.07-.92,0-1.95-.14-1.95-1.71v-2.73h-.97v-1.34h.97v-1.74h2.18v1.74Z"/>
    <path class="st0" d="M33.06,10.45c-2.15,0-3.11-1.42-3.11-3s.97-2.99,3.11-2.99,3.11,1.41,3.11,2.99-.97,3-3.11,3ZM33.06,6.04c-.83,0-.94.8-.94,1.41s.11,1.42.94,1.42.94-.81.94-1.42-.11-1.41-.94-1.41Z"/>
    <path class="st0" d="M37.16,4.6h2.1v.73h.02c.41-.57.99-.87,1.86-.87,1.02,0,1.96.63,1.96,1.94v3.92h-2.18v-2.99c0-.66-.08-1.12-.71-1.12-.37,0-.87.19-.87,1.1v3.01h-2.18v-5.71Z"/>
    <path class="st0" d="M49.19,7.67c0,.2.03.37.09.52.18.47.7.57,1.16.57.4,0,1-.13,1-.72,0-.41-.34-.52-1.69-.9-1.24-.35-2.66-.69-2.66-2.28,0-1.82,1.55-2.6,3.17-2.6,1.71,0,3.21.65,3.28,2.56h-2.29c.04-.3-.09-.5-.29-.63-.2-.14-.47-.2-.71-.2-.33,0-.87.09-.87.53.04.56,1.17.68,2.28.99,1.11.31,2.21.83,2.21,2.27,0,2.05-1.88,2.71-3.63,2.71-.89,0-3.43-.32-3.45-2.83h2.42Z"/>
    <path class="st0" d="M57.33,4.6h1.17v1.34h-1.17v1.99c0,.53.12.76.67.76.17,0,.33-.01.49-.03v1.65c-.44,0-.94.07-1.4.07-.92,0-1.95-.14-1.95-1.71v-2.73h-.97v-1.34h.97v-1.74h2.18v1.74Z"/>
    <path class="st0" d="M59.58,8.13h2.29v2.18h-2.29v-2.18Z"/>
    <path class="st0" d="M68.78,9.51c-.54.69-1.38.99-2.23.99-2.32,0-3.75-1.8-3.75-4.04,0-2.99,2.1-4.19,3.87-4.19,2,0,3.27,1.09,3.62,2.94h-2.32c-.09-.57-.57-.98-1.14-.98-1.66,0-1.61,1.75-1.61,2.29,0,.74.3,2.02,1.77,2.02.56,0,1.13-.29,1.25-.87h-1.07v-1.68h3.21v4.32h-1.53l-.08-.8Z"/>
    <path class="st0" d="M77.31,9.03c0,.43.02.91.26,1.28h-2.22c-.06-.15-.09-.38-.08-.54h-.02c-.46.53-1.13.68-1.84.68-1.1,0-2.01-.53-2.01-1.73,0-1.8,2.11-1.74,3.22-1.95.3-.06.59-.14.59-.51,0-.39-.36-.53-.72-.53-.67,0-.8.34-.81.58h-2.02c.03-.8.43-1.28.99-1.54.55-.26,1.28-.33,1.95-.33,2.73,0,2.71,1.13,2.71,2.23v2.34ZM75.22,7.75c-.26.13-.56.21-.86.28-.48.11-.74.23-.74.62,0,.26.29.53.68.53.5,0,.88-.3.91-.89v-.53Z"/>
    <path class="st0" d="M78.59,2.45h2.18v7.86h-2.18V2.45Z"/>
    <path class="st0" d="M82.07,2.45h2.18v7.86h-2.18V2.45Z"/>
    <path class="st0" d="M87.35,7.94c.06.65.43,1.11,1.11,1.11.35,0,.74-.13.91-.41h2.04c-.44,1.23-1.64,1.8-2.94,1.8-1.83,0-3.2-1.08-3.2-2.98,0-1.66,1.21-3.01,3.01-3.01,2.27,0,3.25,1.26,3.25,3.49h-4.18ZM89.44,6.81c0-.53-.4-.96-.96-.96-.65,0-1.02.34-1.12.96h2.08Z"/>
    <path class="st0" d="M92.51,4.6h2.1v.73h.02c.41-.57.99-.87,1.86-.87,1.02,0,1.96.63,1.96,1.94v3.92h-2.18v-2.99c0-.66-.08-1.12-.71-1.12-.37,0-.87.19-.87,1.1v3.01h-2.18v-5.71Z"/>
  </g>
  <g>
    <path class="st0" d="M8.73,21.51c-.54.69-1.38.99-2.23.99-2.32,0-3.75-1.8-3.75-4.04,0-2.99,2.1-4.19,3.87-4.19,2,0,3.27,1.09,3.62,2.94h-2.32c-.09-.57-.57-.98-1.14-.98-1.66,0-1.61,1.75-1.61,2.29,0,.74.3,2.02,1.77,2.02.56,0,1.13-.29,1.25-.87h-1.07v-1.68h3.21v4.32h-1.53l-.08-.8Z"/>
    <path class="st0" d="M13.47,19.95c.06.65.43,1.11,1.11,1.11.35,0,.74-.13.91-.41h2.04c-.44,1.23-1.64,1.8-2.94,1.8-1.83,0-3.2-1.08-3.2-2.98,0-1.66,1.21-3.01,3.01-3.01,2.27,0,3.25,1.26,3.25,3.49h-4.18ZM15.56,18.81c0-.53-.4-.96-.96-.96-.65,0-1.02.34-1.12.96h2.08Z"/>
    <path class="st0" d="M25.76,22.31h-2.23l-.83-3.51h-.02l-.85,3.51h-2.23l-1.78-5.71h2.27l.85,3.53h.02l.73-3.53h2.04l.76,3.53h.04l.79-3.53h2.27l-1.81,5.71Z"/>
    <path class="st0" d="M29.86,19.95c.06.65.43,1.11,1.11,1.11.35,0,.74-.13.91-.41h2.04c-.44,1.23-1.64,1.8-2.94,1.8-1.83,0-3.2-1.08-3.2-2.98,0-1.66,1.21-3.01,3.01-3.01,2.27,0,3.25,1.26,3.25,3.49h-4.18ZM31.95,18.81c0-.53-.4-.96-.96-.96-.65,0-1.02.34-1.12.96h2.08Z"/>
    <path class="st0" d="M35.01,16.6h2.09v.91h.02c.35-.68.81-1.06,1.61-1.06.22,0,.43.03.64.09v1.92c-.22-.08-.42-.14-.86-.14-.86,0-1.32.51-1.32,1.73v2.25h-2.18v-5.71Z"/>
    <path class="st0" d="M40.02,14.46h2.18v2.77h.02c.33-.48.91-.77,1.56-.77,1.91,0,2.43,1.63,2.43,2.97,0,1.43-.78,3.03-2.4,3.03-1.07,0-1.4-.41-1.67-.77h-.02v.63h-2.1v-7.86ZM43.08,18.04c-.78,0-.96.74-.96,1.41s.18,1.42.96,1.42.96-.74.96-1.42-.18-1.41-.96-1.41Z"/>
    <path class="st0" d="M47.27,14.46h2.18v7.86h-2.18v-7.86Z"/>
    <path class="st0" d="M52.93,15.98h-2.18v-1.53h2.18v1.53ZM50.76,16.6h2.18v5.71h-2.18v-5.71Z"/>
    <path class="st0" d="M57.87,18.77c-.02-.23-.1-.42-.24-.54-.13-.12-.32-.19-.55-.19-.84,0-.96.73-.96,1.42s.12,1.41.96,1.41c.47,0,.8-.38.85-.84h2.08c-.1.77-.46,1.38-.99,1.79-.52.41-1.21.63-1.98.63-1.72,0-3.09-1.19-3.09-2.99s1.38-3,3.09-3c1.5,0,2.77.74,2.9,2.31h-2.07Z"/>
    <path class="st0" d="M60.96,14.46h2.18v2.76h.02c.37-.44.86-.76,1.78-.76,1.02,0,1.96.63,1.96,1.94v3.92h-2.18v-2.99c0-.66-.08-1.12-.71-1.12-.37,0-.87.19-.87,1.1v3.01h-2.18v-7.86Z"/>
    <path class="st0" d="M69.96,19.95c.06.65.43,1.11,1.11,1.11.35,0,.74-.13.91-.41h2.04c-.44,1.23-1.64,1.8-2.94,1.8-1.83,0-3.2-1.08-3.2-2.98,0-1.66,1.21-3.01,3.01-3.01,2.27,0,3.25,1.26,3.25,3.49h-4.18ZM72.05,18.81c0-.53-.4-.96-.96-.96-.65,0-1.02.34-1.12.96h2.08Z"/>
    <path class="st0" d="M78.39,18.26c-.01-.19-.11-.33-.25-.43-.13-.11-.31-.17-.48-.17-.31,0-.66.07-.66.44,0,.17.13.24.25.3.36.15,1.19.2,1.91.44.73.23,1.36.66,1.36,1.6,0,1.58-1.52,2.01-2.9,2.01s-2.82-.54-2.85-2.01h2.08c.01.2.1.36.26.51.11.1.32.17.58.17.29,0,.74-.11.74-.44s-.19-.43-1.2-.6c-1.66-.29-2.33-.81-2.33-1.79,0-1.44,1.55-1.82,2.7-1.82,1.23,0,2.72.34,2.77,1.8h-1.98Z"/>
    <path class="st0" d="M84.38,14.46h4.3c2.07,0,2.51,1.17,2.51,1.97s-.38,1.22-.97,1.54c.7.24,1.36.8,1.36,1.96,0,1.57-1.36,2.39-2.75,2.39h-4.46v-7.86ZM86.8,17.51h1.28c.51,0,.83-.14.83-.65,0-.4-.33-.54-.83-.54h-1.28v1.19ZM86.8,20.44h1.42c.51,0,.95-.14.95-.75,0-.46-.27-.71-.85-.71h-1.52v1.46Z"/>
    <path class="st0" d="M94.41,19.95c.06.65.43,1.11,1.11,1.11.35,0,.74-.13.91-.41h2.04c-.44,1.23-1.64,1.8-2.94,1.8-1.83,0-3.2-1.08-3.2-2.98,0-1.66,1.21-3.01,3.01-3.01,2.27,0,3.25,1.26,3.25,3.49h-4.18ZM96.5,18.81c0-.53-.4-.96-.96-.96-.65,0-1.02.34-1.12.96h2.08Z"/>
    <path class="st0" d="M99.57,16.6h2.09v.91h.02c.35-.68.81-1.06,1.61-1.06.22,0,.43.03.64.09v1.92c-.22-.08-.42-.14-.86-.14-.86,0-1.32.51-1.32,1.73v2.25h-2.18v-5.71Z"/>
    <path class="st0" d="M110.52,22.31h-2.1v-.73h-.02c-.41.57-.99.87-1.86.87-1.02,0-1.96-.63-1.96-1.94v-3.92h2.18v2.99c0,.66.08,1.12.71,1.12.37,0,.87-.19.87-1.1v-3.01h2.18v5.71Z"/>
    <path class="st0" d="M112.2,17.94h-.89v-1.34h.89c-.02-.56.03-1.19.45-1.61.47-.47,1.02-.54,1.9-.54.33,0,.65.03.98.04v1.5c-.18-.02-.35-.08-.53-.08-.53,0-.7.15-.67.68h1.14v1.34h-1.1v4.37h-2.18v-4.37Z"/>
    <path class="st0" d="M119.56,18.26c-.01-.19-.11-.33-.25-.43-.13-.11-.31-.17-.48-.17-.31,0-.66.07-.66.44,0,.17.13.24.25.3.36.15,1.19.2,1.91.44.73.23,1.36.66,1.36,1.6,0,1.58-1.52,2.01-2.9,2.01s-2.82-.54-2.85-2.01h2.08c.01.2.1.36.26.51.11.1.32.17.58.17.29,0,.74-.11.74-.44s-.19-.43-1.2-.6c-1.66-.29-2.33-.81-2.33-1.79,0-1.44,1.55-1.82,2.7-1.82,1.23,0,2.72.34,2.77,1.8h-1.98Z"/>
    <path class="st0" d="M122.67,18.47h3.44v1.8h-3.44v-1.8Z"/>
    <path class="st0" d="M136.1,22.31h-2.1v-.73h-.02c-.41.57-.99.87-1.86.87-1.02,0-1.96-.63-1.96-1.94v-3.92h2.18v2.99c0,.66.08,1.12.71,1.12.37,0,.87-.19.87-1.1v-3.01h2.18v5.71Z"/>
    <path class="st0" d="M137.38,16.6h2.1v.73h.02c.41-.57.99-.87,1.86-.87,1.02,0,1.96.63,1.96,1.94v3.92h-2.18v-2.99c0-.66-.08-1.12-.71-1.12-.37,0-.87.19-.87,1.1v3.01h-2.18v-5.71Z"/>
    <path class="st0" d="M150.51,22.31h-2.1v-.63h-.02c-.27.36-.6.77-1.67.77-1.62,0-2.4-1.59-2.4-3.03,0-1.34.52-2.97,2.43-2.97.65,0,1.23.29,1.56.77h.02v-2.77h2.18v7.86ZM147.45,18.04c-.78,0-.96.74-.96,1.41s.18,1.42.96,1.42.96-.74.96-1.42-.18-1.41-.96-1.41Z"/>
  </g>
  <g>
    <path class="st0" d="M10.82,34.31h-2.35l-.85-4.79h-.02l-.82,4.79h-2.37l-2.13-7.86h2.38l.96,4.85h.02l.95-4.85h2.13l.92,4.92h.02l.98-4.92h2.39l-2.2,7.86Z"/>
    <path class="st0" d="M15.13,31.95c.06.65.43,1.11,1.11,1.11.35,0,.74-.13.91-.41h2.04c-.44,1.23-1.64,1.8-2.94,1.8-1.83,0-3.2-1.08-3.2-2.98,0-1.66,1.21-3.01,3.01-3.01,2.27,0,3.25,1.26,3.25,3.49h-4.18ZM17.22,30.81c0-.53-.4-.96-.96-.96-.65,0-1.02.34-1.12.96h2.08Z"/>
    <path class="st0" d="M22.47,27.99h-2.18v-1.53h2.18v1.53ZM20.3,28.6h2.18v5.71h-2.18v-5.71Z"/>
    <path class="st0" d="M26.41,28.6h1.17v1.34h-1.17v1.99c0,.53.12.76.67.76.17,0,.33-.01.49-.03v1.65c-.44,0-.94.07-1.4.07-.92,0-1.95-.14-1.95-1.71v-2.73h-.97v-1.34h.97v-1.74h2.18v1.74Z"/>
    <path class="st0" d="M30.21,31.95c.06.65.43,1.11,1.11,1.11.35,0,.74-.13.91-.41h2.04c-.44,1.23-1.64,1.8-2.94,1.8-1.83,0-3.2-1.08-3.2-2.98,0-1.66,1.21-3.01,3.01-3.01,2.27,0,3.25,1.26,3.25,3.49h-4.18ZM32.3,30.81c0-.53-.4-.96-.96-.96-.65,0-1.02.34-1.12.96h2.08Z"/>
    <path class="st0" d="M35.37,28.6h2.09v.91h.02c.35-.68.81-1.06,1.61-1.06.22,0,.43.03.64.09v1.92c-.22-.08-.42-.14-.86-.14-.86,0-1.32.51-1.32,1.73v2.25h-2.18v-5.71Z"/>
    <path class="st0" d="M40.37,26.46h2.18v2.77h.02c.33-.48.91-.77,1.56-.77,1.91,0,2.43,1.63,2.43,2.97,0,1.43-.78,3.03-2.4,3.03-1.07,0-1.4-.41-1.67-.77h-.02v.63h-2.1v-7.86ZM43.43,30.04c-.78,0-.96.74-.96,1.41s.18,1.42.96,1.42.96-.74.96-1.42-.18-1.41-.96-1.41Z"/>
    <path class="st0" d="M49.8,27.99h-2.18v-1.53h2.18v1.53ZM47.62,28.6h2.18v5.71h-2.18v-5.71Z"/>
    <path class="st0" d="M51.11,26.46h2.18v7.86h-2.18v-7.86Z"/>
    <path class="st0" d="M60.52,34.31h-2.1v-.63h-.02c-.27.36-.6.77-1.67.77-1.62,0-2.4-1.59-2.4-3.03,0-1.34.52-2.97,2.43-2.97.65,0,1.23.29,1.56.77h.02v-2.77h2.18v7.86ZM57.46,30.04c-.78,0-.96.74-.96,1.41s.18,1.42.96,1.42.96-.74.96-1.42-.18-1.41-.96-1.41Z"/>
    <path class="st0" d="M67.73,34.31h-2.1v-.73h-.02c-.41.57-.99.87-1.86.87-1.02,0-1.96-.63-1.96-1.94v-3.92h2.18v2.99c0,.66.08,1.12.71,1.12.37,0,.87-.19.87-1.1v-3.01h2.18v5.71Z"/>
    <path class="st0" d="M69,28.6h2.1v.73h.02c.41-.57.99-.87,1.86-.87,1.02,0,1.96.63,1.96,1.94v3.92h-2.18v-2.99c0-.66-.08-1.12-.71-1.12-.37,0-.87.19-.87,1.1v3.01h-2.18v-5.71Z"/>
    <path class="st0" d="M82.05,33.57c0,1.13-.3,2.73-2.97,2.73-1.35,0-2.78-.36-2.98-1.9h2.16c.02.05.08.13.12.2.13.2.36.42.64.42.7,0,.86-.84.86-1.31v-.53h-.02c-.35.51-.88.79-1.53.79-1.68,0-2.44-1.25-2.44-2.78s.85-2.73,2.48-2.73c.64,0,1.24.25,1.5.84h.02v-.69h2.18v4.97ZM79.04,32.57c.8,0,.89-.77.89-1.41s-.31-1.12-.95-1.12-.92.53-.92,1.13c0,.65.2,1.4.98,1.4Z"/>
    <path class="st0" d="M86.6,30.26c-.01-.19-.11-.33-.25-.43-.13-.11-.31-.17-.48-.17-.31,0-.66.07-.66.44,0,.17.13.24.25.3.36.15,1.19.2,1.91.44.73.23,1.36.66,1.36,1.6,0,1.58-1.52,2.01-2.9,2.01s-2.82-.54-2.85-2.01h2.08c.01.2.1.36.26.51.11.1.32.17.58.17.29,0,.74-.11.74-.44s-.19-.43-1.2-.6c-1.66-.29-2.33-.81-2.33-1.79,0-1.44,1.55-1.82,2.7-1.82,1.23,0,2.72.34,2.77,1.8h-1.98Z"/>
    <path class="st0" d="M89.35,32.63l2.67-2.44h-2.43v-1.58h5.23v1.67l-2.61,2.45h2.84v1.58h-5.7v-1.68Z"/>
    <path class="st0" d="M97.72,31.95c.06.65.43,1.11,1.11,1.11.35,0,.74-.13.91-.41h2.04c-.44,1.23-1.64,1.8-2.94,1.8-1.83,0-3.2-1.08-3.2-2.98,0-1.66,1.21-3.01,3.01-3.01,2.27,0,3.25,1.26,3.25,3.49h-4.18ZM99.81,30.81c0-.53-.4-.96-.96-.96-.65,0-1.02.34-1.12.96h2.08Z"/>
    <path class="st0" d="M102.88,28.6h2.1v.73h.02c.41-.57.99-.87,1.86-.87,1.02,0,1.96.63,1.96,1.94v3.92h-2.18v-2.99c0-.66-.08-1.12-.71-1.12-.37,0-.87.19-.87,1.1v3.01h-2.18v-5.71Z"/>
    <path class="st0" d="M112.68,28.6h1.17v1.34h-1.17v1.99c0,.53.12.76.67.76.17,0,.33-.01.49-.03v1.65c-.44,0-.94.07-1.4.07-.92,0-1.95-.14-1.95-1.71v-2.73h-.97v-1.34h.97v-1.74h2.18v1.74Z"/>
    <path class="st0" d="M114.82,28.6h2.09v.91h.02c.35-.68.81-1.06,1.61-1.06.22,0,.43.03.64.09v1.92c-.22-.08-.42-.14-.86-.14-.86,0-1.32.51-1.32,1.73v2.25h-2.18v-5.71Z"/>
    <path class="st0" d="M125.76,34.31h-2.1v-.73h-.02c-.41.57-.99.87-1.86.87-1.02,0-1.96-.63-1.96-1.94v-3.92h2.18v2.99c0,.66.08,1.12.71,1.12.37,0,.87-.19.87-1.1v-3.01h2.18v5.71Z"/>
    <path class="st0" d="M127.03,28.6h2.1v.76h.02c.44-.66,1.08-.9,1.87-.9.62,0,1.28.32,1.54.89.09-.07.53-.89,1.95-.89s1.96,1.01,1.96,1.94v3.92h-2.18v-3.09c0-.54-.06-1.02-.72-1.02-.55,0-.74.43-.74,1.02v3.09h-2.18v-3.09c0-.54-.05-1.02-.71-1.02-.55,0-.74.43-.74,1.02v3.09h-2.18v-5.71Z"/>
    <path class="st0" d="M142.53,31.67c0,.2.03.37.09.52.18.47.7.57,1.15.57.4,0,1-.13,1-.72,0-.41-.34-.52-1.69-.9-1.24-.35-2.66-.69-2.66-2.28,0-1.82,1.55-2.6,3.17-2.6,1.71,0,3.21.65,3.28,2.56h-2.29c.04-.3-.09-.5-.29-.63-.2-.14-.47-.2-.71-.2-.33,0-.87.09-.87.53.04.56,1.17.68,2.28.99,1.11.31,2.21.83,2.21,2.27,0,2.05-1.88,2.71-3.63,2.71-.89,0-3.43-.32-3.45-2.83h2.42Z"/>
    <path class="st0" d="M150.67,28.6h1.17v1.34h-1.17v1.99c0,.53.12.76.67.76.17,0,.33-.01.5-.03v1.65c-.44,0-.94.07-1.4.07-.92,0-1.95-.14-1.95-1.71v-2.73h-.97v-1.34h.97v-1.74h2.18v1.74Z"/>
    <path class="st0" d="M152.91,32.13h2.29v2.18h-2.29v-2.18Z"/>
    <path class="st0" d="M162.12,33.51c-.54.69-1.38.99-2.23.99-2.32,0-3.75-1.8-3.75-4.04,0-2.99,2.1-4.19,3.87-4.19,2,0,3.27,1.09,3.62,2.94h-2.32c-.09-.57-.57-.98-1.14-.98-1.66,0-1.61,1.75-1.61,2.29,0,.74.3,2.02,1.77,2.02.56,0,1.13-.29,1.25-.87h-1.07v-1.68h3.21v4.32h-1.53l-.08-.8Z"/>
    <path class="st0" d="M170.64,33.04c0,.43.02.91.26,1.28h-2.22c-.06-.15-.09-.38-.08-.54h-.02c-.46.53-1.13.68-1.84.68-1.1,0-2.01-.53-2.01-1.73,0-1.8,2.11-1.74,3.22-1.95.3-.06.59-.14.59-.51,0-.39-.36-.53-.72-.53-.67,0-.8.34-.81.58h-2.02c.03-.8.43-1.28.99-1.54.55-.26,1.28-.33,1.95-.33,2.73,0,2.71,1.13,2.71,2.23v2.34ZM168.55,31.75c-.26.13-.56.21-.86.28-.48.11-.74.23-.74.62,0,.26.29.53.68.53.5,0,.88-.3.91-.89v-.53Z"/>
    <path class="st0" d="M171.92,26.46h2.18v7.86h-2.18v-7.86Z"/>
    <path class="st0" d="M175.4,26.46h2.18v7.86h-2.18v-7.86Z"/>
    <path class="st0" d="M180.68,31.95c.06.65.43,1.11,1.11,1.11.35,0,.74-.13.91-.41h2.04c-.44,1.23-1.64,1.8-2.94,1.8-1.83,0-3.2-1.08-3.2-2.98,0-1.66,1.21-3.01,3.01-3.01,2.27,0,3.25,1.26,3.25,3.49h-4.18ZM182.78,30.81c0-.53-.4-.96-.96-.96-.65,0-1.02.34-1.12.96h2.08Z"/>
    <path class="st0" d="M185.84,28.6h2.1v.73h.02c.41-.57.99-.87,1.86-.87,1.02,0,1.96.63,1.96,1.94v3.92h-2.18v-2.99c0-.66-.08-1.12-.71-1.12-.37,0-.87.19-.87,1.1v3.01h-2.18v-5.71Z"/>
  </g>
  <path class="st0" d="M222.74,16.1l-.82.88v-1.99h.82v1.11ZM222.74,23.71l-.82-.88v-2.87l.82-.88v4.64ZM222.74,27.85h-.82v-2.04l.82.88v1.16ZM222.74,30.84c0,.32-.26.4-.41.4s-.41-.08-.41-.4v-.98h.82v.98ZM221.01,31.28c-.21,0-.56-.11-.56-.55v-.87h1.13v.87c0,.43-.35.55-.56.55M219.2,31.32c-.43,0-.9-.28-.9-.88v-.59h1.8v.59c0,.6-.47.88-.9.88M219.69,34.15c0,.38-.31.48-.49.48s-.49-.1-.49-.48v-2.57c.16.06.32.09.49.09s.34-.03.49-.09v2.57ZM217.95,30.73c0,.43-.35.55-.56.55s-.56-.11-.56-.55v-.87h1.13v.87ZM216.48,30.84c0,.32-.26.4-.41.4s-.41-.08-.41-.4v-.98h.82v.98ZM215.65,26.68l.82-.88v2.05h-.82v-1.17ZM215.65,19.12l.82.88v2.79l-.82.88v-4.55ZM215.65,14.99h.82v2l-.82-.88v-1.12ZM215.65,11.99c0-.32.26-.4.41-.4s.41.08.41.4v.99h-.82v-.99ZM217.39,11.54c.21,0,.56.11.56.55v.89h-1.13v-.89c0-.43.35-.55.56-.55M219.2,11.5c.43,0,.9.27.9.88v.6h-1.8v-.6c0-.6.47-.88.9-.88M218.71,9.24c.06,0,.12,0,.19,0h.8v2.01c-.16-.06-.32-.09-.49-.09s-.34.03-.49.09v-2.01ZM215.18,10.29c-.51-.88-.74-1.72-.74-2.71,0-.85.19-1.66.58-2.41,1.03,1.3,2.33,1.95,3.88,1.95h1.77v1.76s-1.77,0-1.77,0c-1.58,0-2.7.42-3.72,1.4M218.71,5.96c0-.38.31-.48.49-.48s.49.1.49.48v.83h-.8c-.06,0-.12,0-.19,0v-.82ZM220.44,12.09c0-.43.35-.55.56-.55s.56.11.56.55v.89h-1.13v-.89ZM221.92,11.99c0-.32.26-.4.41-.4s.41.08.41.4v.99h-.82v-.99ZM215.31,13.33h7.77v1.32h-7.77v-1.32ZM220.44,18.55v-3.56h1.13v2.36l-1.13,1.2ZM220.58,21.4l.99-1.06v2.13l-.99-1.06ZM219.19,19.9l-.89-.95v-3.95h1.8v3.93l-.91.98ZM217.95,14.99v3.58l-1.13-1.21v-2.37h1.13ZM220.44,27.85v-3.61l1.13,1.2v2.41h-1.13ZM217.95,24.22v3.63h-1.13v-2.42l1.13-1.21ZM218.3,27.85v-4l.89-.95.91.98v3.98h-1.8ZM217.78,21.4l-.96,1.02v-2.05l.96,1.02ZM215.31,26.54v-2l2.71-2.89.93.99-3.64,3.9ZM223.08,29.52h-7.77v-1.32h7.77v1.32ZM223.08,24.58v1.96l-7.77-8.3v-2l7.77,8.34ZM223.08,16.25v1.96l-2.73,2.93-.92-.99,3.66-3.9ZM223.25,14.99c.09,0,.17-.08.17-.17v-1.67c0-.1-.08-.17-.17-.17h-.17v-.99c0-.49-.38-.75-.76-.75-.23,0-.46.09-.61.28-.18-.21-.45-.32-.72-.32-.32,0-.63.15-.8.44-.05-.07-.11-.13-.18-.18v-2.22h.98v-2.45h-.98v-.83c0-.54-.42-.83-.84-.83s-.84.28-.84.83v.8c-1.28-.14-2.36-.82-3.22-2l-.16-.22-.13.23c-.5.86-.75,1.81-.75,2.81,0,1.11.29,2.09.9,3.08l.12.19.15-.16c.87-.9,1.81-1.34,3.09-1.43v2.2c-.06.05-.12.11-.17.18-.16-.29-.48-.44-.8-.44-.27,0-.54.11-.72.32-.15-.19-.38-.28-.61-.28-.38,0-.76.26-.76.75v.99h-.17c-.1,0-.17.08-.17.17v1.67c0,.09.08.17.17.17h.17v.74l-.04-.05c-.05-.05-.12-.07-.19-.04-.07.03-.11.09-.11.16v2.51s.02.09.05.12l.3.32v5.28l-.3.32s-.05.07-.05.12v2.51c0,.07.04.14.11.16.02,0,.04.01.06.01.05,0,.09-.02.13-.05l.04-.05v.79h-.17c-.1,0-.17.08-.17.17v1.67c0,.1.08.17.17.17h.17v.98c0,.49.38.75.76.75.23,0,.46-.1.61-.28.18.21.45.32.72.32.32,0,.63-.15.8-.44.05.07.11.13.17.18v2.77c0,.54.42.83.84.83s.84-.28.84-.83v-2.77c.06-.05.12-.11.18-.18.16.29.48.44.8.44.27,0,.54-.11.72-.32.15.18.38.28.61.28.38,0,.76-.26.76-.75v-.98h.17c.09,0,.17-.08.17-.17v-1.67c0-.1-.08-.17-.17-.17h-.17v-.79l.04.04s.08.05.13.05c.02,0,.04,0,.06-.01.07-.03.11-.09.11-.16v-2.47s-.02-.09-.05-.12l-.29-.31v-5.38l.29-.31s.05-.07.05-.12v-2.47c0-.07-.04-.13-.11-.16-.07-.03-.14-.01-.19.04l-.04.04v-.74h.17Z"/>
  <path class="st0" d="M205.43,2.86v13.66c0,5.43.85,9.48,2.68,12.73,2.19,3.91,5.82,6.69,11.09,8.48,5.27-1.8,8.9-4.57,11.09-8.48,1.83-3.26,2.68-7.31,2.68-12.73V2.86h-27.53ZM219.2,38.17l-.07-.02c-5.41-1.83-9.13-4.67-11.38-8.69-1.86-3.32-2.73-7.43-2.73-12.93V2.46h28.35v14.07c0,5.5-.87,9.61-2.73,12.93-2.25,4.02-5.97,6.86-11.38,8.69l-.06.02Z"/>
</svg>